#!OML:ASF E:\Style4\Style4.ASF
:FULLY-SPECIFIED
:DEGREES
1003
root -1.41265 17.4107 -1.56775 5.71322 17.7151 0.464666
lowerback 16.8659 6.85198 2.86343
upperback 14.0324 9.44541 1.72378
thorax 5.96728 4.98324 -0.774652
lowerneck 5.72587 -11.2749 -4.76749
upperneck -8.67102 -14.4488 14.2557
head -2.06395 -7.69406 5.39166
rclavicle -5.08889e-014 1.11319e-014
rhumerus 63.0036 22.5953 -29.0871
rradius 87.0675
rwrist -81.097
rhand -28.2305 6.9998
rfingers 7.12502
rthumb -1.60848 -22.9739
lclavicle -5.08889e-014 1.11319e-014
lhumerus 42.3411 -17.143 32.9941
lradius 102.148
lwrist 85.1839
lhand -34.9414 45.8874
lfingers 7.12502
lthumb -8.08817 75.7126
rfemur -27.8355 -13.0083 24.9492
rtibia 43.8699
rfoot -22.7632 -22.5367
rtoes -2.9586
lfemur -31.5331 -7.60971 -12.9896
ltibia 39.5697
lfoot -13.0417 3.95347
ltoes -24.103
1004
root -1.38086 17.4173 -1.5688 5.76148 17.5491 0.582753
lowerback 16.929 7.02599 3.01954
upperback 13.9994 9.68793 1.79446
thorax 5.92332 5.11233 -0.818596
lowerneck 5.59238 -11.5652 -4.55397
upperneck -8.56698 -14.8511 13.9246
head -2.01626 -7.88017 5.24705
rclavicle -9.06458e-014 6.36111e-015
rhumerus 62.6712 22.9668 -30.2634
rradius 87.1552
rwrist -80.7401
rhand -28.9106 7.20116
rfingers 7.12502
rthumb -2.26534 -22.7666
lclavicle -9.06458e-014 6.36111e-015
lhumerus 42.8305 -16.9775 31.4062
lradius 102.242
lwrist 85.3837
lhand -30.6491 45.1461
lfingers 7.12502
lthumb -3.9443 75.0893
rfemur -27.8118 -12.965 24.7066
rtibia 43.8172
rfoot -22.5942 -22.5148
rtoes -3.34471
lfemur -31.4043 -7.53213 -13.2457
ltibia 39.4409
lfoot -13.0681 4.07483
ltoes -24.2742
1005
root -1.34804 17.4238 -1.56972 5.75625 17.4285 0.583575
lowerback 16.9909 7.15176 3.25293
upperback 13.963 9.87465 1.9528
thorax 5.87095 5.21416 -0.807089
lowerneck 5.62548 -11.84 -4.49888
upperneck -8.58168 -15.2397 13.5963
head -2.02146 -8.06332 5.14391
rclavicle 2.8625e-014 -2.38542e-014
rhumerus 62.3888 23.3769 -31.2976
rradius 87.3256
rwrist -80.4213
rhand -29.4848 7.915
rfingers 7.12502
rthumb -2.81992 -22.0461
lclavicle 2.8625e-014 -2.38542e-014
lhumerus 43.1775 -16.7788 29.8992
lradius 102.465
lwrist 85.7841
lhand -41.3637 50.061
lfingers 7.12502
lthumb -14.2821 79.5499
rfemur -27.7295 -12.9069 24.5741
rtibia 43.736
rfoot -22.518 -22.501
rtoes -3.50886
lfemur -31.2801 -7.43989 -13.3854
ltibia 39.3331
lfoot -13.062 4.14537
ltoes -24.481
1006
root -1.31585 17.4316 -1.5713 5.7698 17.4046 0.609859
lowerback 17.1068 7.32188 3.59963
upperback 13.8066 10.1381 2.02704
thorax 5.69738 5.36461 -0.96911
lowerneck 6.04288 -12.1899 -4.04713
upperneck -8.81776 -15.678 13.2184
head -2.18875 -8.29561 5.01304
rclavicle -5.56597e-014 -2.54444e-014
rhumerus 61.5963 23.6751 -32.6913
rradius 87.5272
rwrist -80.3023
rhand -30.0479 8.75987
rfingers 7.12502
rthumb -3.36373 -21.1933
lclavicle -5.56597e-014 -2.54444e-014
lhumerus 43.7056 -16.9025 28.3388
lradius 102.642
lwrist 86.1265
lhand -34.3013 45.5475
lfingers 7.12502
lthumb -7.47039 75.3956
rfemur -27.6455 -12.874 24.4213
rtibia 43.648
rfoot -22.4226 -22.5437
rtoes -3.72475
lfemur -31.2071 -7.41231 -13.5392
ltibia 39.2339
lfoot -13.0438 4.12057
ltoes -24.4054
1007
root -1.28389 17.4373 -1.57554 5.83613 17.3718 0.747266
lowerback 17.3523 7.61737 4.05747
upperback 13.5487 10.5887 1.94105
thorax 5.41322 5.62187 -1.40142
lowerneck 6.56533 -12.6911 -3.12092
upperneck -9.1027 -16.2595 12.8545
head -2.41812 -8.61585 4.83798
rclavicle -5.08889e-014 -3.18055e-014
rhumerus 60.2007 23.7345 -34.5215
rradius 87.634
rwrist -80.0484
rhand -30.39 9.21893
rfingers 7.12502
rthumb -3.6941 -20.7288
lclavicle -5.08889e-014 -3.18055e-014
lhumerus 44.7661 -17.3172 26.4763
lradius 102.722
lwrist 86.239
lhand -34.8918 45.1808
lfingers 7.12502
lthumb -8.04035 75.0079
rfemur -27.6242 -12.8132 24.1325
rtibia 43.5685
rfoot -22.3541 -22.5481
rtoes -3.80521
lfemur -31.1575 -7.43046 -13.8068
ltibia 39.1317
lfoot -13.0599 4.07154
ltoes -24.1157
1008
root -1.25013 17.4424 -1.57929 5.85041 17.28 0.863937
lowerback 17.4586 7.73979 4.24045
upperback 13.487 10.7713 2.04712
thorax 5.31535 5.7187 -1.4273
lowerneck 6.68876 -12.9376 -2.97727
upperneck -9.13184 -16.5963 12.5569
head -2.4583 -8.7773 4.74606
rclavicle 1.76521e-013 -1.43125e-014
rhumerus 59.6583 24.0452 -35.9323
rradius 87.7215
rwrist -79.6204
rhand -30.574 9.30046
rfingers 7.12502
rthumb -3.87179 -20.6441
lclavicle 1.76521e-013 -1.43125e-014
lhumerus 45.2242 -17.1645 24.9896
lradius 102.671
lwrist 86.2197
lhand -33.6684 45.6706
lfingers 7.12502
lthumb -6.85942 75.5395
rfemur -27.5817 -12.7607 23.8514
rtibia 43.5302
rfoot -22.2815 -22.5125
rtoes -3.82016
lfemur -31.0206 -7.39435 -14.072
ltibia 38.9933
lfoot -13.0702 4.06479
ltoes -24.0918
1009
root -1.21574 17.4472 -1.58085 5.85718 17.1324 0.940462
lowerback 17.3463 7.67381 4.10112
upperback 13.5819 10.6556 2.33002
thorax 5.38448 5.63725 -1.02751
lowerneck 6.5471 -12.9212 -3.4352
upperneck -9.0443 -16.6623 12.1937
head -2.39704 -8.7745 4.68787
rclavicle 1.43125e-014 -4.45278e-014
rhumerus 60.0086 24.7074 -36.9414
rradius 87.7944
rwrist -79.2608
rhand -30.9524 9.48386
rfingers 7.12502
rthumb -4.23716 -20.4537
lclavicle 1.43125e-014 -4.45278e-014
lhumerus 44.8953 -16.5273 23.9271
lradius 102.537
lwrist 86.1163
lhand -32.5914 46.48
lfingers 7.12502
lthumb -5.81976 76.38
rfemur -27.5383 -12.701 23.6347
rtibia 43.5338
rfoot -22.2505 -22.4531
rtoes -3.78618
lfemur -30.8579 -7.27829 -14.293
ltibia 38.8218
lfoot -12.9887 4.08552
ltoes -23.6213
1010
root -1.18134 17.4536 -1.58196 6.04647 16.9494 1.30811
lowerback 17.1514 7.62526 3.62059
upperback 13.6461 10.5204 2.53887
thorax 5.41097 5.52332 -0.518827
lowerneck 6.4494 -12.8908 -3.89431
upperneck -8.98157 -16.7049 11.8328
head -2.3522 -8.76216 4.6356
rclavicle -9.70069e-014 9.54166e-015
rhumerus 60.4743 25.3519 -37.531
rradius 87.9678
rwrist -79.4449
rhand -31.8702 10.4668
rfingers 7.12502
rthumb -5.12344 -19.4512
lclavicle -9.70069e-014 9.54166e-015
lhumerus 44.4121 -15.9782 22.8032
lradius 102.437
lwrist 85.9768
lhand -32.4565 46.731
lfingers 7.12502
lthumb -5.6895 76.6347
rfemur -27.6166 -12.6191 23.1268
rtibia 43.5237
rfoot -22.1348 -22.4305
rtoes -3.97331
lfemur -30.792 -7.1918 -14.8105
ltibia 38.6693
lfoot -12.9259 4.16262
ltoes -23.0692
1011
root -1.14679 17.4612 -1.58232 6.23401 16.8297 1.67883
lowerback 16.9218 7.50856 3.07609
upperback 13.7243 10.2894 2.8033
thorax 5.44961 5.35391 0.096883
lowerneck 6.38104 -12.7935 -4.60729
upperneck -8.88887 -16.677 11.5557
head -2.27991 -8.71159 4.64123
rclavicle -1.43125e-013 2.70347e-014
rhumerus 61.155 26.0914 -37.684
rradius 88.2368
rwrist -79.8706
rhand -32.7941 11.5079
rfingers 7.12502
rthumb -6.01542 -18.3867
lclavicle -1.43125e-013 2.70347e-014
lhumerus 43.6946 -15.4932 21.7327
lradius 102.472
lwrist 86.0597
lhand -32.3897 46.1422
lfingers 7.12502
lthumb -5.62495 76.0475
rfemur -27.6656 -12.5497 22.6014
rtibia 43.4808
rfoot -22.0674 -22.4072
rtoes -4.10803
lfemur -30.7456 -7.15867 -15.3331
ltibia 38.5536
lfoot -12.9693 4.12914
ltoes -22.9158
1012
root -1.11104 17.4656 -1.58821 6.06256 16.862 1.47115
lowerback 16.9584 7.34071 3.32073
upperback 13.7907 10.0921 3.13607
thorax 5.47998 5.25719 0.335699
lowerneck 6.33979 -12.7974 -5.00597
upperneck -8.82207 -16.7547 11.2015
head -2.24534 -8.72062 4.58721
rclavicle -8.42847e-014 4.77083e-015
rhumerus 61.5583 26.7054 -38.201
rradius 88.3871
rwrist -79.9695
rhand -33.3673 12.2466
rfingers 7.12502
rthumb -6.56876 -17.6316
lclavicle -8.42847e-014 4.77083e-015
lhumerus 43.2495 -15.1677 20.593
lradius 102.679
lwrist 86.3418
lhand -32.5601 45.8913
lfingers 7.12502
lthumb -5.78948 75.7922
rfemur -27.4756 -12.531 22.6336
rtibia 43.3903
rfoot -22.1193 -22.3323
rtoes -3.853
lfemur -30.5771 -7.10897 -15.2702
ltibia 38.4769
lfoot -12.9791 3.95875
ltoes -22.7473
1013
root -1.07327 17.4683 -1.5972 5.95599 16.8868 1.28787
lowerback 17.0691 7.32467 3.85544
upperback 13.7752 10.1343 3.27689
thorax 5.47965 5.31067 0.183786
lowerneck 6.25299 -13.0084 -4.77064
upperneck -8.79451 -17.0449 10.81
head -2.2562 -8.85201 4.43736
rclavicle 6.83819e-014 -1.59028e-015
rhumerus 61.1794 26.939 -39.4222
rradius 88.4855
rwrist -79.5553
rhand -33.5379 12.5252
rfingers 7.12502
rthumb -6.73345 -17.3478
lclavicle 6.83819e-014 -1.59028e-015
lhumerus 43.5554 -14.9952 19.2238
lradius 102.835
lwrist 86.4419
lhand -32.4998 46.1127
lfingers 7.12502
lthumb -5.73127 76.0152
rfemur -27.3576 -12.5412 22.6535
rtibia 43.285
rfoot -22.0776 -22.2897
rtoes -3.97622
lfemur -30.5075 -7.07061 -15.2416
ltibia 38.4375
lfoot -12.9348 4.01751
ltoes -22.8204
1014
root -1.03626 17.4725 -1.60481 6.01746 16.7939 1.45589
lowerback 17.168 7.42004 4.0734
upperback 13.669 10.2884 3.27901
thorax 5.35538 5.4008 0.031412
lowerneck 6.32357 -13.2608 -4.39625
upperneck -8.75455 -17.38 10.4059
head -2.30032 -9.01138 4.27891
rclavicle -6.99722e-014 2.54444e-014
rhumerus 60.4549 27.2283 -40.9247
rradius 88.5083
rwrist -78.8602
rhand -33.5155 12.6156
rfingers 7.12502
rthumb -6.71186 -17.258
lclavicle -6.99722e-014 2.54444e-014
lhumerus 44.2158 -14.8986 17.7067
lradius 102.797
lwrist 86.5719
lhand -32.1261 46.3653
lfingers 7.12502
lthumb -5.37046 76.2772
rfemur -27.3329 -12.4836 22.3251
rtibia 43.1961
rfoot -21.8917 -22.3242
rtoes -4.36282
lfemur -30.481 -7.02841 -15.5729
ltibia 38.4212
lfoot -12.918 4.10356
ltoes -22.7998
